#!OML:ASF I:\Actors\actors\Patient Classification 1\Patient 1\Session 1\Subject1.ASF
:FULLY-SPECIFIED
:DEGREES
2810
root -0.600063 16.9191 7.60407 80.4606 -14.361 -1.39941
lowerback 29.3278 2.13003 10.4414
upperback 6.73261 5.80348 4.32469
thorax -7.8918 2.40017 -3.07558
lowerneck -14.9714 -12.4718 -15.1166
upperneck -14.9589 -13.8784 23.1769
head 0.97027 -6.92573 8.69094
rclavicle 4.77083e-014 6.40087e-014
rhumerus 61.4672 -7.79343 -71.7845
rradius 52.8721
rwrist 22.3036
rhand -21.9601 -63.8697
rfingers 7.12502
rthumb 4.44734 453.803
lclavicle 4.77083e-014 6.40087e-014
lhumerus -39.4976 -14.4259 102.543
lradius 113.362
lwrist 30.5875
lhand -47.2066 -48.5394
lfingers 7.12502
lthumb -19.9059 -19.5388
rfemur -92.5265 -0.309164 -17.1314
rtibia 6.60864
rfoot -11.3003 -33.424
rtoes 29.199
lfemur -85.4592 6.46338 -22.3952
ltibia 5.15979
lfoot -2.94377 14.7726
ltoes -2.69205
2811
root -0.601631 16.9197 7.6036 80.6146 -14.3633 -1.65819
lowerback 29.7439 1.98715 10.4196
upperback 6.59829 5.68077 4.21431
thorax -8.25351 2.31885 -3.17514
lowerneck -15.1538 -12.4078 -15.368
upperneck -14.6181 -13.7648 23.3442
head 1.1149 -6.82989 8.77917
rclavicle 1.27222e-014 -2.62396e-014
rhumerus 60.3728 -6.971 -71.3431
rradius 56.8
rwrist 24.7062
rhand -22.196 -63.944
rfingers 7.12502
rthumb 4.21949 453.882
lclavicle 1.27222e-014 -2.62396e-014
lhumerus -39.6636 -13.8528 102.253
lradius 113.472
lwrist 30.6809
lhand -47.2175 -48.5638
lfingers 7.12502
lthumb -19.9164 -19.5644
rfemur -92.8213 -0.203088 -17.0748
rtibia 6.73321
rfoot -11.2117 -33.4441
rtoes 29.0734
lfemur -85.6308 6.75425 -22.6696
ltibia 5.19106
lfoot -3.02102 14.5148
ltoes -2.01467
2812
root -0.602609 16.9204 7.60462 80.6629 -14.3527 -1.77976
lowerback 30.2563 1.91034 10.3317
upperback 6.39472 5.65157 4.19171
thorax -8.74988 2.27217 -3.17699
lowerneck -15.2322 -12.3519 -15.4129
upperneck -14.2381 -13.7151 23.3168
head 1.22871 -6.77817 8.76659
rclavicle -8.5875e-014 -1.27222e-014
rhumerus 59.3277 -6.48596 -70.8647
rradius 59.557
rwrist 26.1201
rhand -22.8196 -64.0258
rfingers 7.12502
rthumb 3.61729 453.975
lclavicle -8.5875e-014 -1.27222e-014
lhumerus -40.0336 -13.5605 102.198
lradius 113.539
lwrist 30.7909
lhand -47.1591 -48.334
lfingers 7.12502
lthumb -19.8602 -19.3288
rfemur -92.9457 -0.148406 -17.0282
rtibia 6.80387
rfoot -11.1175 -33.4566
rtoes 29.0205
lfemur -85.6894 6.89105 -22.9503
ltibia 5.16801
lfoot -3.06465 14.2491
ltoes -1.41497
2813
root -0.603948 16.9208 7.60594 80.6457 -14.3049 -1.8471
lowerback 30.4888 1.92435 10.2548
upperback 6.32863 5.68734 4.21983
thorax -8.94776 2.27596 -3.12946
lowerneck -15.2412 -12.3043 -15.3147
upperneck -14.0048 -13.688 23.3006
head 1.28519 -6.75663 8.73997
rclavicle 7.95139e-015 -4.09496e-014
rhumerus 58.8056 -6.3648 -70.584
rradius 60.6412
rwrist 26.5686
rhand -24.6874 -63.9312
rfingers 7.12502
rthumb 1.8135 453.903
lclavicle 7.95139e-015 -4.09496e-014
lhumerus -40.2467 -13.6085 102.228
lradius 113.504
lwrist 30.9955
lhand -47.0904 -47.9453
lfingers 7.12502
lthumb -19.7941 -18.9332
rfemur -92.9858 -0.0938455 -16.9528
rtibia 6.87141
rfoot -11.1803 -33.3847
rtoes 29.2351
lfemur -85.6863 6.9832 -23.1966
ltibia 5.12952
lfoot -3.01698 13.9747
ltoes -1.61048
2814
root -0.604947 16.9214 7.60641 80.5856 -14.2328 -1.87684
lowerback 30.4824 1.94983 10.203
upperback 6.39372 5.69452 4.22988
thorax -8.87498 2.28565 -3.08939
lowerneck -15.2257 -12.2362 -15.0837
upperneck -13.9495 -13.6333 23.314
head 1.27591 -6.73828 8.71327
rclavicle 2.22639e-014 5.96354e-015
rhumerus 59.1214 -6.64771 -71.0219
rradius 58.9596
rwrist 28.3098
rhand -23.9608 -63.8075
rfingers 7.12502
rthumb 2.5152 453.772
lclavicle 2.22639e-014 5.96354e-015
lhumerus -40.2687 -13.8731 102.178
lradius 113.393
lwrist 31.3108
lhand -46.9817 -47.6224
lfingers 7.12502
lthumb -19.6897 -18.5996
rfemur -92.9574 -0.0338204 -16.8591
rtibia 6.91132
rfoot -11.2939 -33.3015
rtoes 29.4225
lfemur -85.6824 7.05618 -23.4233
ltibia 5.15276
lfoot -3.04455 13.6808
ltoes -1.5856
2815
root -0.604972 16.9226 7.60568 80.4979 -14.1721 -1.87067
lowerback 30.4271 2.03416 10.1236
upperback 6.44602 5.77072 4.32073
thorax -8.79847 2.32749 -2.9643
lowerneck -15.0049 -12.2312 -15.0319
upperneck -14.0203 -13.6511 23.2998
head 1.22087 -6.76506 8.70989
rclavicle -5.56597e-014 -3.18055e-015
rhumerus 60.0473 -7.12665 -71.6712
rradius 55.2765
rwrist 29.9899
rhand -23.5411 -63.5443
rfingers 7.12502
rthumb 2.92054 453.504
lclavicle -5.56597e-014 -3.18055e-015
lhumerus -40.3825 -14.2861 102.35
lradius 113.236
lwrist 31.5911
lhand -47.0029 -47.3851
lfingers 7.12502
lthumb -19.7101 -18.3643
rfemur -92.8488 0.0511695 -16.7832
rtibia 6.85769
rfoot -11.2403 -33.3014
rtoes 29.2331
lfemur -85.6646 7.09549 -23.6673
ltibia 5.18484
lfoot -3.09378 13.3699
ltoes -0.810771
2816
root -0.604039 16.9235 7.60355 80.4132 -14.1257 -1.86442
lowerback 30.3511 2.19384 10.0182
upperback 6.43994 5.94562 4.48493
thorax -8.78152 2.41033 -2.77668
lowerneck -14.6521 -12.29 -15.0648
upperneck -14.1331 -13.7597 23.1867
head 1.14337 -6.84178 8.68329
rclavicle -1.04958e-013 -1.33186e-013
rhumerus 61.3424 -7.77319 -72.3471
rradius 49.8748
rwrist 31.3125
rhand -22.9469 -63.4388
rfingers 7.12502
rthumb 3.49442 453.39
lclavicle -1.04958e-013 -1.33186e-013
lhumerus -40.5843 -14.788 102.756
lradius 112.982
lwrist 31.7375
lhand -47.1096 -47.2331
lfingers 7.12502
lthumb -19.8127 -18.2229
rfemur -92.7211 0.153142 -16.7219
rtibia 6.75482
rfoot -11.0272 -33.3507
rtoes 28.8701
lfemur -85.623 7.12814 -23.924
ltibia 5.16672
lfoot -3.0725 13.039
ltoes -0.170024
2817
root -0.602885 16.9245 7.59953 80.3745 -14.1068 -1.88542
lowerback 30.2108 2.39213 9.87819
upperback 6.42818 6.14855 4.62487
thorax -8.73951 2.50853 -2.60341
lowerneck -14.3472 -12.3552 -15.038
upperneck -14.3466 -13.8689 23.0769
head 1.03972 -6.92384 8.65068
rclavicle 7.63333e-014 5.28767e-014
rhumerus 62.8318 -8.42423 -72.7072
rradius 43.7173
rwrist 30.473
rhand -22.6439 -63.7479
rfingers 7.12502
rthumb 3.78694 453.694
lclavicle 7.63333e-014 5.28767e-014
lhumerus -40.7634 -15.3392 103.138
lradius 112.666
lwrist 31.7497
lhand -47.1664 -47.1633
lfingers 7.12502
lthumb -19.8673 -18.1588
rfemur -92.6624 0.237508 -16.6835
rtibia 6.67523
rfoot -10.7431 -33.4114
rtoes 28.4356
lfemur -85.6183 7.18882 -24.2059
ltibia 5.14299
lfoot -3.05163 12.7043
ltoes 0.16769
2818
root -0.60317 16.9251 7.59567 80.3387 -14.1682 -1.91788
lowerback 30.0428 2.62085 9.69144
upperback 6.46711 6.35891 4.71204
thorax -8.62495 2.61581 -2.46237
lowerneck -14.0873 -12.4304 -15.0765
upperneck -14.7474 -13.9517 23.1152
head 0.905933 -6.99787 8.68555
rclavicle -4.77083e-014 -1.07344e-014
rhumerus 64.2976 -9.14687 -73.038
rradius 37.9135
rwrist 28.6511
rhand -21.2214 -63.1815
rfingers 7.12502
rthumb 5.16061 453.099
lclavicle -4.77083e-014 -1.07344e-014
lhumerus -40.732 -15.9661 103.432
lradius 112.27
lwrist 31.6982
lhand -47.1662 -47.2793
lfingers 7.12502
lthumb -19.8671 -18.2748
rfemur -92.6462 0.306972 -16.7215
rtibia 6.63714
rfoot -10.59 -33.4495
rtoes 28.1334
lfemur -85.5784 7.26391 -24.5624
ltibia 5.07656
lfoot -3.0037 12.3721
ltoes 0.0055017
2819
root -0.605268 16.9242 7.59316 80.2657 -14.2673 -1.90041
lowerback 29.7305 2.80181 9.60471
upperback 6.63544 6.49528 4.72225
thorax -8.27657 2.70242 -2.42335
lowerneck -13.8521 -12.5019 -15.009
upperneck -15.3814 -14.0171 23.1328
head 0.694546 -7.07905 8.70961
rclavicle -4.13472e-014 -4.01545e-014
rhumerus 65.5102 -10.1379 -74.3043
rradius 33.7512
rwrist 29.8686
rhand -23.247 -63.232
rfingers 7.12502
rthumb 3.20453 453.188
lclavicle -4.13472e-014 -4.01545e-014
lhumerus -40.2714 -16.6021 103.566
lradius 111.775
lwrist 31.6334
lhand -46.9922 -47.4747
lfingers 7.12502
lthumb -19.6998 -18.4529
rfemur -92.6179 0.32367 -16.8032
rtibia 6.65933
rfoot -10.7642 -33.3881
rtoes 28.4763
lfemur -85.4626 7.29258 -24.9577
ltibia 4.95055
lfoot -2.86904 12.0421
ltoes -0.91912
2820
root -0.609219 16.9202 7.5804 80.2065 -13.7482 -1.97362
lowerback 29.1799 2.86558 10.1401
upperback 6.91812 6.62627 4.86342
thorax -7.62033 2.79325 -2.5559
lowerneck -13.6735 -12.563 -14.8338
upperneck -16.1034 -14.0719 23.0679
head 0.44578 -7.16125 8.69542
rclavicle -1.59028e-015 4.96962e-014
rhumerus 66.185 -11.2436 -76.0171
rradius 31.8605
rwrist 34.3714
rhand -23.063 -63.4009
rfingers 7.12502
rthumb 3.38222 453.354
lclavicle -1.59028e-015 4.96962e-014
lhumerus -39.7661 -17.1149 103.604
lradius 111.414
lwrist 31.516
lhand -46.8033 -47.4913
lfingers 7.12502
lthumb -19.5182 -18.451
rfemur -92.6303 0.549155 -16.2541
rtibia 6.76031
rfoot -10.9921 -33.2722
rtoes 29.0168
lfemur -85.6957 7.54372 -24.7194
ltibia 5.20369
lfoot -2.80712 11.6772
ltoes -1.0718
